<?xml version="1.0" encoding="UTF-8" standalone="no"?>
<!DOCTYPE svg PUBLIC "-//W3C//DTD SVG 1.1//EN" "http://www.w3.org/Graphics/SVG/1.1/DTD/svg11.dtd">
<!-- Generated by Microsoft Visio, SVG Export umlactivity.svg Page-1 -->
<svg xmlns="http://www.w3.org/2000/svg" xmlns:xlink="http://www.w3.org/1999/xlink" xmlns:ev="http://www.w3.org/2001/xml-events"
		xmlns:v="http://schemas.microsoft.com/visio/2003/SVGExtensions/" width="11in" height="8.5in" viewBox="0 0 792 612"
		xml:space="preserve" color-interpolation-filters="sRGB" class="st12">
	<v:documentProperties v:langID="1033" v:viewMarkup="false">
		<v:userDefs>
			<v:ud v:nameU="msvNoAutoConnect" v:prompt="" v:val="VT0(0):26"/>
		</v:userDefs>
	</v:documentProperties>

	<style type="text/css">
	<![CDATA[
		.st1 {fill:#5b9bd5;stroke:#5b9bd5;stroke-linecap:round;stroke-linejoin:round;stroke-width:0.5}
		.st2 {fill:#73ae42;stroke:#ffffff;stroke-linecap:round;stroke-linejoin:round;stroke-width:0.5}
		.st3 {fill:#ffffff;font-family:Calibri;font-size:1.00001em}
		.st4 {font-size:1em}
		.st5 {marker-end:url(#mrkr4-12);stroke:#5592c9;stroke-linecap:round;stroke-linejoin:round;stroke-width:0.5}
		.st6 {fill:#5592c9;fill-opacity:1;stroke:#5592c9;stroke-opacity:1;stroke-width:0.16556291390728}
		.st7 {fill:#5b9bd5;stroke:#ffffff;stroke-linecap:round;stroke-linejoin:round;stroke-width:0.5}
		.st8 {fill:none;stroke:none;stroke-linecap:round;stroke-linejoin:round;stroke-width:0.5}
		.st9 {fill:#5b9bd5;font-family:Calibri;font-size:1.00001em}
		.st10 {fill:#a5a5a5}
		.st11 {stroke:#a5a5a5;stroke-linecap:round;stroke-linejoin:round;stroke-width:0.5}
		.st12 {fill:none;fill-rule:evenodd;font-size:12px;overflow:visible;stroke-linecap:square;stroke-miterlimit:3}
	]]>
	</style>

	<defs id="Markers">
		<g id="lend4">
			<path d="M 2 1 L 0 0 L 2 -1 L 2 1 " style="stroke:none"/>
		</g>
		<marker id="mrkr4-12" class="st6" v:arrowType="4" v:arrowSize="2" v:setback="12.08" refX="-12.08" orient="auto"
				markerUnits="strokeWidth" overflow="visible">
			<use xlink:href="#lend4" transform="scale(-6.04,-6.04) "/>
		</marker>
	</defs>
	<g v:mID="0" v:index="1" v:groupContext="foregroundPage">
		<v:userDefs>
			<v:ud v:nameU="msvThemeOrder" v:val="VT0(0):26"/>
		</v:userDefs>
		<title>Page-1</title>
		<v:pageProperties v:drawingScale="1" v:pageScale="1" v:drawingUnits="0" v:shadowOffsetX="9" v:shadowOffsetY="-9"/>
		<v:layer v:name="Connector" v:index="0"/>
		<g id="shape1-1" v:mID="1" v:groupContext="shape" transform="translate(18,-513)">
			<title>Initial node</title>
			<v:userDefs>
				<v:ud v:nameU="visVersion" v:prompt="" v:val="VT0(15):26"/>
			</v:userDefs>
			<ellipse cx="18" cy="594" rx="18" ry="18" class="st1"/>
		</g>
		<g id="shape2-3" v:mID="2" v:groupContext="shape" transform="translate(126,-512.598)">
			<title>Action</title>
			<desc>create new appointment</desc>
			<v:userDefs>
				<v:ud v:nameU="visVersion" v:prompt="" v:val="VT0(15):26"/>
			</v:userDefs>
			<v:textBlock v:margins="rect(4,4,4,4)"/>
			<v:textRect cx="54" cy="593.598" width="108" height="36.8038"/>
			<rect x="0" y="575.196" width="108" height="36.8038" rx="9" ry="9" class="st2"/>
			<text x="26.73" y="590" class="st3" v:langID="1033"><v:paragraph v:horizAlign="1"/><v:tabList/>create new <tspan
						x="22.18" dy="1.2em" class="st4">appointment</tspan></text>		</g>
		<g id="shape4-7" v:mID="4" v:groupContext="shape" v:layerMember="0" transform="translate(54,-522)">
			<title>Dynamic connector</title>
			<path d="M0 603 L65.96 603" class="st5"/>
		</g>
		<g id="shape5-13" v:mID="5" v:groupContext="shape" transform="translate(603,-423)">
			<title>Decision</title>
			<v:userDefs>
				<v:ud v:nameU="visVersion" v:prompt="" v:val="VT0(15):26"/>
			</v:userDefs>
			<path d="M18 612 L36 594 L18 576 L0 594 L18 612 Z" class="st7"/>
		</g>
		<g id="shape6-15" v:mID="6" v:groupContext="shape" transform="translate(378,-512.598)">
			<title>Action.6</title>
			<desc>is date later than today</desc>
			<v:userDefs>
				<v:ud v:nameU="visVersion" v:prompt="" v:val="VT0(15):26"/>
			</v:userDefs>
			<v:textBlock v:margins="rect(4,4,4,4)"/>
			<v:textRect cx="54" cy="593.598" width="108" height="36.8038"/>
			<rect x="0" y="575.196" width="108" height="36.8038" rx="9" ry="9" class="st2"/>
			<text x="12.66" y="590" class="st3" v:langID="1033"><v:paragraph v:horizAlign="1"/><v:tabList/>is date later than <tspan
						x="40.08" dy="1.2em" class="st4">today</tspan></text>		</g>
		<g id="shape10-19" v:mID="10" v:groupContext="shape" transform="translate(378,-459)">
			<title>Action.10</title>
			<desc>are all fields filled in</desc>
			<v:userDefs>
				<v:ud v:nameU="visVersion" v:prompt="" v:val="VT0(15):26"/>
			</v:userDefs>
			<v:textBlock v:margins="rect(4,4,4,4)"/>
			<v:textRect cx="54" cy="594" width="108" height="36"/>
			<rect x="0" y="576" width="108" height="36" rx="9" ry="9" class="st2"/>
			<text x="5.3" y="597.6" class="st3" v:langID="1033"><v:paragraph v:horizAlign="1"/><v:tabList/>are all fields filled in</text>		</g>
		<g id="shape13-22" v:mID="13" v:groupContext="shape" transform="translate(378,-386.598)">
			<title>Action.13</title>
			<desc>is dock already assigned</desc>
			<v:userDefs>
				<v:ud v:nameU="visVersion" v:prompt="" v:val="VT0(15):26"/>
			</v:userDefs>
			<v:textBlock v:margins="rect(4,4,4,4)"/>
			<v:textRect cx="54" cy="593.598" width="108" height="36.8038"/>
			<rect x="0" y="575.196" width="108" height="36.8038" rx="9" ry="9" class="st2"/>
			<text x="17.91" y="590" class="st3" v:langID="1033"><v:paragraph v:horizAlign="1"/><v:tabList/>is dock already <tspan
						x="32.94" dy="1.2em" class="st4">assigned</tspan></text>		</g>
		<g id="shape16-26" v:mID="16" v:groupContext="shape" transform="translate(378,-314.598)">
			<title>Action.16</title>
			<desc>is worker already assigned</desc>
			<v:userDefs>
				<v:ud v:nameU="visVersion" v:prompt="" v:val="VT0(15):26"/>
			</v:userDefs>
			<v:textBlock v:margins="rect(4,4,4,4)"/>
			<v:textRect cx="54" cy="593.598" width="108" height="36.8038"/>
			<rect x="0" y="575.196" width="108" height="36.8038" rx="9" ry="9" class="st2"/>
			<text x="12.14" y="590" class="st3" v:langID="1033"><v:paragraph v:horizAlign="1"/><v:tabList/>is worker already <tspan
						x="32.94" dy="1.2em" class="st4">assigned</tspan></text>		</g>
		<g id="shape21-30" v:mID="21" v:groupContext="shape" transform="translate(533.25,-314.598)">
			<title>Sheet.21</title>
			<rect x="0" y="389.25" width="6.75" height="222.75" class="st7"/>
		</g>
		<g id="shape23-32" v:mID="23" v:groupContext="shape" v:layerMember="0" transform="translate(486,-522)">
			<title>Dynamic connector.23</title>
			<path d="M0 603 L41.21 603" class="st5"/>
		</g>
		<g id="shape24-37" v:mID="24" v:groupContext="shape" v:layerMember="0" transform="translate(486,-468)">
			<title>Dynamic connector.24</title>
			<path d="M0 603 L41.21 603" class="st5"/>
		</g>
		<g id="shape25-42" v:mID="25" v:groupContext="shape" v:layerMember="0" transform="translate(486,-396)">
			<title>Dynamic connector.25</title>
			<path d="M0 603 L41.21 603" class="st5"/>
		</g>
		<g id="shape26-47" v:mID="26" v:groupContext="shape" v:layerMember="0" transform="translate(486,-324)">
			<title>Dynamic connector.26</title>
			<path d="M0 603 L41.21 603" class="st5"/>
		</g>
		<g id="shape27-52" v:mID="27" v:groupContext="shape" transform="translate(567,-252)">
			<title>Action.27</title>
			<desc>Create appointment</desc>
			<v:userDefs>
				<v:ud v:nameU="visVersion" v:prompt="" v:val="VT0(15):26"/>
			</v:userDefs>
			<v:textBlock v:margins="rect(4,4,4,4)"/>
			<v:textRect cx="54" cy="594" width="108" height="36"/>
			<rect x="0" y="576" width="108" height="36" rx="9" ry="9" class="st2"/>
			<text x="4.68" y="597.6" class="st3" v:langID="1033"><v:paragraph v:horizAlign="1"/><v:tabList/>Create appointment</text>		</g>
		<g id="shape35-55" v:mID="35" v:groupContext="shape" transform="translate(621,-499.5)">
			<title>Sheet.35</title>
			<desc>Incorrectly filled out form</desc>
			<v:textBlock v:margins="rect(4,4,4,4)"/>
			<v:textRect cx="36" cy="603" width="72" height="18"/>
			<rect x="0" y="594" width="72" height="18" class="st8"/>
			<text x="9.83" y="592.2" class="st9" v:langID="1033"><v:paragraph v:horizAlign="1"/><v:tabList/>Incorrectly <tspan
						x="14.22" dy="1.2em" class="st4">filled out </tspan><tspan x="24.12" dy="1.2em" class="st4">form</tspan></text>		</g>
		<g id="shape38-60" v:mID="38" v:groupContext="shape" transform="translate(320.625,-314.598)">
			<title>Sheet.38</title>
			<rect x="0" y="389.25" width="6.75" height="222.75" class="st7"/>
		</g>
		<g id="shape39-62" v:mID="39" v:groupContext="shape" v:layerMember="0" transform="translate(234,-522)">
			<title>Dynamic connector.39</title>
			<path d="M0 603 L80.58 603" class="st5"/>
		</g>
		<g id="shape40-67" v:mID="40" v:groupContext="shape" v:layerMember="0" transform="translate(327.375,-522)">
			<title>Dynamic connector.40</title>
			<path d="M0 603 L44.58 603" class="st5"/>
		</g>
		<g id="shape41-72" v:mID="41" v:groupContext="shape" v:layerMember="0" transform="translate(327.375,-468)">
			<title>Dynamic connector.41</title>
			<path d="M0 603 L44.58 603" class="st5"/>
		</g>
		<g id="shape42-77" v:mID="42" v:groupContext="shape" v:layerMember="0" transform="translate(327.375,-396)">
			<title>Dynamic connector.42</title>
			<path d="M0 603 L44.58 603" class="st5"/>
		</g>
		<g id="shape43-82" v:mID="43" v:groupContext="shape" v:layerMember="0" transform="translate(327.375,-324)">
			<title>Dynamic connector.43</title>
			<path d="M0 603 L44.58 603" class="st5"/>
		</g>
		<g id="shape44-87" v:mID="44" v:groupContext="shape" v:layerMember="0" transform="translate(540,-427.5)">
			<title>Dynamic connector.44</title>
			<path d="M0 607.5 L0 598.5 L56.96 598.5" class="st5"/>
		</g>
		<g id="shape46-92" v:mID="46" v:groupContext="shape" v:layerMember="0" transform="translate(621,-459)">
			<title>Dynamic connector.46</title>
			<path d="M0 612 L0 576 L-4.5 576 L-4.5 503.6 L-441 503.6 L-441 515.56" class="st5"/>
		</g>
		<g id="shape47-97" v:mID="47" v:groupContext="shape" transform="translate(657,-314.598)">
			<title>Sheet.47</title>
			<desc>Form filled out correctly</desc>
			<v:textBlock v:margins="rect(4,4,4,4)"/>
			<v:textRect cx="36" cy="603" width="72" height="18"/>
			<rect x="0" y="594" width="72" height="18" class="st8"/>
			<text x="9.74" y="599.4" class="st9" v:langID="1033"><v:paragraph v:horizAlign="1"/><v:tabList/>Form filled <tspan
						x="4.81" dy="1.2em" class="st4">out correctly</tspan></text>		</g>
		<g id="shape48-101" v:mID="48" v:groupContext="shape" v:layerMember="0" transform="translate(612,-423)">
			<title>Dynamic connector.48</title>
			<path d="M9 612 L9 740.96" class="st5"/>
		</g>
		<g id="shape49-106" v:mID="49" v:groupContext="shape" transform="translate(603,-180)">
			<title>Final node</title>
			<v:userDefs>
				<v:ud v:nameU="visVersion" v:prompt="" v:val="VT0(15):26"/>
			</v:userDefs>
			<path d="M32.4 594 A14.4 14.4 -180 1 0 3.6 594 A14.4 14.4 -180 1 0 32.4 594 Z" class="st10"/>
			<path d="M36 594 A18 18 -180 1 0 0 594 A18 18 -180 1 0 36 594" class="st11"/>
			<path d="M32.4 594 A14.4 14.4 -180 1 0 3.6 594 A14.4 14.4 -180 1 0 32.4 594" class="st11"/>
		</g>
		<g id="shape51-110" v:mID="51" v:groupContext="shape" v:layerMember="0" transform="translate(612,-252)">
			<title>Dynamic connector.51</title>
			<path d="M9 612 L9 641.96" class="st5"/>
		</g>
	</g>
</svg>
